<?xml version="1.0" encoding="UTF-8" standalone="no"?>
<svg
   xmlns:dc="http://purl.org/dc/elements/1.1/"
   xmlns:cc="http://creativecommons.org/ns#"
   xmlns:rdf="http://www.w3.org/1999/02/22-rdf-syntax-ns#"
   xmlns:svg="http://www.w3.org/2000/svg"
   xmlns="http://www.w3.org/2000/svg"
   xmlns:sodipodi="http://sodipodi.sourceforge.net/DTD/sodipodi-0.dtd"
   xmlns:inkscape="http://www.inkscape.org/namespaces/inkscape"
   width="512.0px"
   height="512.0px"
   viewBox="0 0 512.0 512.0"
   version="1.1"
   id="SVGRoot"
   sodipodi:docname="favicon.svg"
   inkscape:version="1.0.2-2 (e86c870879, 2021-01-15)">
  <defs
     id="defs5848" />
  <sodipodi:namedview
     id="base"
     pagecolor="#ffffff"
     bordercolor="#666666"
     borderopacity="1.0"
     inkscape:pageopacity="0.0"
     inkscape:pageshadow="2"
     inkscape:zoom="1.4925138"
     inkscape:cx="222.29156"
     inkscape:cy="277.35158"
     inkscape:document-units="px"
     inkscape:current-layer="layer1"
     inkscape:document-rotation="0"
     showgrid="true"
     inkscape:window-width="1920"
     inkscape:window-height="1017"
     inkscape:window-x="-8"
     inkscape:window-y="-8"
     inkscape:window-maximized="1"
     inkscape:lockguides="false">
    <inkscape:grid
       type="xygrid"
       id="grid6418" />
  </sodipodi:namedview>
  <metadata
     id="metadata5851">
    <rdf:RDF>
      <cc:Work
         rdf:about="">
        <dc:format>image/svg+xml</dc:format>
        <dc:type
           rdf:resource="http://purl.org/dc/dcmitype/StillImage" />
        <dc:title />
      </cc:Work>
    </rdf:RDF>
  </metadata>
  <g
     inkscape:label="Calque 1"
     inkscape:groupmode="layer"
     id="layer1">
    <g
       id="g1416"
       transform="matrix(1.1101444,0,0,1.1101444,-45.243833,-48.051023)">
      <path
         d="M 314.91727,60.9192 C 300.53448,43.094031 270.46976,46.516621 262.91236,47.367323 c -6.69351,0.758378 -13.57825,2.08389 -19.07814,5.968102 -10.99318,7.768423 -12.19339,22.236947 -12.39123,24.399972 -0.31654,3.462158 -0.0791,6.357182 0.18465,8.302585 2.39383,-0.217621 4.78107,-0.441837 7.16832,-0.659459 -0.27698,-1.66843 -0.62649,-5.183345 0.86389,-9.146692 2.09048,-5.532859 6.31102,-8.328964 7.66291,-8.995017 3.65999,-1.806917 7.7882,-2.407024 11.84388,-2.822483 16.08419,-1.655242 24.22851,-0.995783 28.81834,-0.296757 11.75155,1.787134 17.63393,2.677403 21.81489,7.788208 5.01849,6.132966 4.34584,14.310254 3.87103,17.686682 0.21762,-0.164864 1.72778,-1.27935 3.73253,-0.850701 1.80031,0.38908 2.71037,1.747565 2.87523,2.011349 1.01557,-2.842267 2.57189,-8.434477 1.43103,-15.266469 -1.27276,-7.610154 -5.18334,-12.575878 -6.79242,-14.567443"
         style="fill:#ddaf52;fill-opacity:1;fill-rule:nonzero;stroke:none;stroke-width:0.0659459"
         id="path1808" />
      <path
         d="m 238.55196,82.035068 c 0.033,-1.655242 0.30335,-3.659996 1.10789,-5.803237 2.09048,-5.532859 6.31102,-8.328964 7.66291,-8.995017 3.65999,-1.806917 7.7882,-2.407024 11.84388,-2.822483 7.44528,-0.764972 13.18917,-1.03535 17.66689,-1.03535 5.19654,0 8.68508,0.362702 11.15145,0.738593 0.0396,0.0066 0.0791,0.01319 0.1187,0.01978 -0.0396,-0.0066 -0.0791,-0.01319 -0.1187,-0.01978 -2.46637,-0.375891 -5.95491,-0.738593 -11.15145,-0.738593 -4.47772,0 -10.22161,0.270378 -17.66689,1.03535 -4.05568,0.415459 -8.18389,1.015566 -11.84388,2.822483 -1.35189,0.666053 -5.57243,3.462158 -7.66291,8.995017 -0.80454,2.143241 -1.07492,4.147995 -1.10789,5.803237 v 0 m 71.24791,-10.129286 v 0 c -4.1348,-4.965724 -9.77977,-5.954912 -20.77954,-7.629937 11.06572,1.681619 16.72387,2.670807 20.77954,7.629937 v 0 m -21.30051,-7.709073 c -0.0198,-0.0066 -0.0396,-0.0066 -0.0528,-0.0066 0.0132,0 0.033,0 0.0528,0.0066"
         style="fill:#dbd4ca;fill-opacity:1;fill-rule:nonzero;stroke:none;stroke-width:0.0659459"
         id="path1810" />
      <path
         d="m 314.515,84.323389 c -0.1187,-0.0066 -0.23081,-0.0066 -0.34291,-0.01319 -0.16487,-3.778698 -1.12768,-8.507017 -4.37222,-12.404418 v 0 c -4.05567,-4.95913 -9.71382,-5.948318 -20.77954,-7.629937 -0.17146,-0.02638 -0.34951,-0.05276 -0.52097,-0.07914 -0.0198,-0.0066 -0.0396,-0.0066 -0.0528,-0.0066 -0.1187,-0.01978 -0.23081,-0.03957 -0.34292,-0.05276 -0.0396,-0.0066 -0.0791,-0.01319 -0.1187,-0.01978 -2.46637,-0.375891 -5.95491,-0.738593 -11.15145,-0.738593 -4.47772,0 -10.22161,0.270378 -17.66689,1.03535 -4.05568,0.415459 -8.18389,1.015566 -11.84388,2.822483 -1.35189,0.666053 -5.57243,3.462158 -7.66291,8.995017 -0.80454,2.143241 -1.07492,4.147995 -1.10789,5.803237 -0.0528,0 -0.11211,0.0066 -0.17146,0.01319 -0.0198,-0.415459 -0.033,-0.824324 -0.0264,-1.233188 0.033,-2.354268 0.40886,-4.847022 0.91005,-7.148532 0.78476,-3.60724 2.14984,-7.34637 4.5107,-10.2348 1.35848,-1.655241 5.20972,-6.363776 20.25857,-8.322369 1.10789,-0.14508 6.50886,-0.797945 13.33426,-0.797945 11.70539,0 27.58515,1.92562 33.12461,11.679014 1.00897,1.76735 1.83989,4.088644 2.10367,4.866805 1.73438,5.018481 2.07729,9.700638 1.91902,13.466147"
         style="fill:#be9141;fill-opacity:1;fill-rule:nonzero;stroke:none;stroke-width:0.0659459"
         id="path1812" />
      <path
         d="m 168.85376,390.56283 c 2.87524,-3.28411 5.612,-6.70011 8.85654,-9.6281 2.46637,-2.22238 5.73729,-2.67081 8.97523,-2.26195 4.12821,0.52098 8.08496,2.06411 12.16042,2.91481 4.60961,0.95622 9.30496,1.37827 14.01349,1.28595 9.56875,-0.19125 19.10452,-1.01557 28.61392,-2.06411 19.11111,-2.11027 38.30136,-5.01189 57.59053,-3.97654 4.79426,0.25719 9.53577,0.82433 14.34982,0.77157 4.7283,-0.0593 9.44343,-0.46162 14.14537,-0.95621 6.04065,-0.63308 12.08788,-1.41125 18.14831,-1.79373 0.21762,-0.26378 0.49459,-0.50119 0.83092,-0.71222 3.15221,-1.97178 7.12215,-2.82248 10.74258,-3.4028 4.24691,-0.68584 8.57956,-1.06173 12.85285,-0.41546 7.41231,1.12767 12.60225,8.34874 16.46668,14.14539 4.82065,7.22107 8.64551,15.1016 11.90983,23.12721 1.97178,4.84043 3.67978,9.80615 4.93934,14.88399 0.57373,2.32129 0.99579,4.69534 1.27935,7.08918 8.09156,-38.69704 6.28464,-86.65947 4.57005,-132.17531 -1.7014,-45.12676 -4.09524,-74.37375 -12.93198,-110.23512 -2.14984,-8.74442 -4.21394,-15.9589 -5.72411,-20.98398 -3.38302,-0.83751 -6.77264,-1.68162 -10.16885,-2.53891 -7.47826,-1.88605 -14.89717,-3.79848 -22.25673,-5.7241 0,0 -1.95859,-0.69903 -8.90269,-2.54551 -13.82226,-3.67319 -31.97714,-1.66843 -52.51269,0.33632 -19.19024,1.87286 -40.45119,3.74573 -62.18695,0.98259 -20.36409,-2.58507 -33.09164,-8.22345 -52.54567,-1.95199 -9.35772,3.01372 -16.38755,7.53101 -20.91144,10.92723 -5.62518,35.51844 -10.32053,71.18856 -14.07285,106.95101 -5.17015,49.23519 -8.45426,99.70356 1.42443,147.96275 1.14087,-2.98075 2.59168,-5.86918 4.18097,-8.61253 4.46454,-7.74205 10.29415,-14.69933 16.16333,-21.39943"
         style="fill:#bc9550;fill-opacity:1;fill-rule:nonzero;stroke:none;stroke-width:0.0659459"
         id="path1814" />
      <path
         d="m 181.40326,484.66758 c 7.66951,4.73492 16.58539,6.9507 25.33641,9.10713 2.42681,0.59351 4.84702,1.18702 7.27383,1.78054 3.22475,0.33632 6.48248,0.61989 9.82593,0.87048 11.35588,0.87049 22.81068,1.06832 34.19294,1.23978 22.95575,0.35611 45.94448,-0.39567 68.75515,-3.09945 10.62388,-1.26616 21.45219,-2.60486 31.78591,-5.45373 8.29599,-2.28172 15.85998,-5.50648 23.23932,-9.95123 9.81934,-5.90215 17.17231,-27.34775 20.21901,-38.40028 11.14485,-40.38525 9.14669,-93.35297 7.26723,-143.36632 -1.7014,-45.12676 -4.09524,-74.37375 -12.93198,-110.23512 -2.14984,-8.74442 -4.21394,-15.9589 -5.72411,-20.98398 -3.38302,-0.83751 -6.77264,-1.68162 -10.16885,-2.53891 -7.47826,-1.88605 -14.89717,-3.79848 -22.25673,-5.7241 0,0 -1.95859,-0.69903 -8.90269,-2.54551 -13.82226,-3.67319 -31.97714,-1.66843 -52.51269,0.33632 -19.19024,1.87286 -40.45119,3.74573 -62.18695,0.98259 -20.36409,-2.58507 -33.09164,-8.22345 -52.54567,-1.95199 -9.35772,3.01372 -16.38755,7.53101 -20.91144,10.92723 -5.62518,35.51844 -10.32053,71.18856 -14.07285,106.95101 -5.8494,55.73086 -9.29177,113.03782 6.04064,166.93538 4.96573,17.48225 12.81329,35.56461 28.27759,45.12016"
         style="fill:#bc9550;fill-opacity:1;fill-rule:nonzero;stroke:none;stroke-width:0.0659459"
         id="path1816" />
      <path
         d="m 265.37874,497.94908 c -10.14248,0 -20.06733,-0.27038 -29.35251,-0.81773 7.33318,0.30335 14.68614,0.42206 22.00614,0.53416 3.48194,0.0528 6.97047,0.0857 10.45901,0.0857 19.47382,0 38.94763,-0.89027 58.29614,-3.18518 0.89027,-0.10552 1.78054,-0.21762 2.6774,-0.32314 -19.53975,2.45319 -42.31086,3.70616 -64.08618,3.70616 m 99.38041,-10.76236 c 5.34162,-1.86627 10.41945,-4.18757 15.39177,-7.04302 -1.8267,1.24637 -3.75892,2.27513 -5.80324,3.06648 -2.57848,1.42443 -5.80983,2.74994 -9.58853,3.97654"
         style="fill:#dbd4ca;fill-opacity:1;fill-rule:nonzero;stroke:none;stroke-width:0.0659459"
         id="path1818" />
      <path
         d="m 392.22561,466.41377 c 0.86389,-1.64206 1.77394,-3.48854 2.71697,-5.57902 -0.85071,1.90583 -1.76076,3.78529 -2.71697,5.57902 m 3.68637,-7.81459 c 1.81351,-7.49145 2.98075,-15.11479 2.72356,-22.87662 -0.32313,-9.81275 -3.33026,-19.26279 -7.19469,-28.21824 -3.09286,-7.16172 -6.66713,-14.19155 -11.0921,-20.62787 v 0 c 0.0989,-0.45503 0.19125,-0.90346 0.29017,-1.3387 3.60724,-7.21448 4.6294,-15.60939 4.6294,-24.08343 0,-4.32605 -0.27038,-8.67188 -0.60011,-12.89242 -1.87946,-24.20213 -4.49091,-48.35151 -7.82778,-72.40197 1.1013,-17.86474 1.38487,-40.04233 -0.42205,-68.61009 -3.63362,-24.49229 -19.90246,-39.00698 -39.42904,-39.00698 -5.9681,0 -12.24614,1.35849 -18.55716,4.20735 -3.97653,2.01794 -12.70776,3.8974 -18.93305,3.8974 -1.17384,0 -2.26194,-0.0725 -3.21156,-0.21762 -1.00238,27.37413 0.33632,22.20397 1.35848,40.39844 -6.79242,-0.29676 -13.58485,-0.45503 -20.37727,-0.45503 -0.69244,0 -1.37827,0 -2.0707,0.007 -2.84227,-15.03566 1.30572,-34.46332 -14.49491,-42.58785 -8.44107,-3.98313 -25.69251,-6.39675 -43.96611,-6.39675 -20.52235,0 -42.33065,3.0467 -54.40534,10.3535 6.15934,-7.14193 12.41761,-10.90744 16.67771,-12.93858 7.26064,-3.46875 14.84441,-3.85783 26.9191,-3.85783 1.77395,0 3.6534,0.007 5.63838,0.0132 1.99816,0.0132 4.10842,0.0198 6.34399,0.0198 h 1.12767 0.244 c 6.74626,0 11.99556,0.40887 16.22269,1.05514 3.5281,0.54735 7.00345,1.37167 10.36009,2.56529 1.45741,0.52757 2.74995,1.07492 3.95016,1.60249 1.25297,0.55394 2.49275,1.12767 3.75232,1.64864 1.14086,0.47481 2.28832,0.89027 3.5281,1.2266 2.83568,0.76497 5.79005,0.94302 8.73783,1.06173 0.27698,0.007 0.54735,0.0198 0.82433,0.033 v 0 c 4.78107,0.18465 9.56215,0.3627 14.34322,0.54735 4.17438,0.16486 8.34216,0.32313 12.51653,0.4814 v 0 c 0.60011,0.0264 1.20681,0.0462 1.81351,0.0725 0.80454,0.033 1.62227,0.0594 2.4334,0.0594 1.21341,0 2.42022,-0.0659 3.60724,-0.30995 2.8027,-0.56713 5.31524,-2.05751 7.86734,-3.35005 4.47773,-2.27513 18.78797,-7.47167 35.06341,-7.47167 3.31048,0 6.7067,0.21103 10.1095,0.71222 7.01005,1.02216 13.25512,3.05329 18.68247,5.51967 v 0.007 c 7.97945,3.62043 14.19814,8.17729 18.47144,11.83729 1.01556,24.28127 2.03113,48.56254 3.0401,72.84381 C 395,259 395,261 395.39101,270.13335 h 0.0132 c 1.38486,33.18396 2.76972,66.36792 4.15459,99.55188 C 400,376 400,378 400.24463,386.19808 c 0.7386,17.6603 1.47719,35.3272 2.21578,52.98751 -0.13848,0.52756 -0.28356,1.05513 -0.42864,1.5761 -1.30573,4.72173 -3.38962,11.34269 -6.11978,17.83836"
         style="fill:#a17c3f;fill-opacity:1;fill-rule:nonzero;stroke:none;stroke-width:0.0659459"
         id="path1822"
         sodipodi:nodetypes="ccccccsscscccscsccsccsccscscsccccccsscsscsccscccccccccccc" />
      <path
         d="m 179.00943,164.81032 c 8.32896,-3.97653 17.07998,-3.91059 32.55748,-3.84464 2.32788,0.0132 4.81404,0.0198 7.47166,0.0198 9.78637,-0.0132 19.77057,0.68584 28.82494,4.3854 3.07308,1.25298 6.02746,2.84887 9.23242,3.71276 3.10606,0.83751 6.35059,0.9694 9.56216,1.0947 9.55555,0.3627 19.1177,0.732 28.67326,1.10129 2.01794,0.0791 4.06227,0.15168 6.04064,-0.25059 2.8027,-0.56713 5.31524,-2.05751 7.86734,-3.35005 5.38778,-2.73675 25.01326,-9.70723 45.17291,-6.75945 20.76636,3.03351 34.8458,14.93014 40.80071,20.67403 -1.63545,-16.39414 -5.90215,-29.26678 -9.46982,-37.87271 -1.29254,-3.11265 -10.78215,-25.40235 -30.84289,-44.289252 -6.08021,-5.724101 -11.38885,-9.614908 -18.16808,-12.041716 -6.13297,-2.189403 -12.74075,-2.565294 -19.243,-2.908213 -17.06679,-0.896863 -34.13358,-1.688214 -51.20697,-2.374051 -10.97998,-0.441837 -22.01273,-0.837513 -32.93336,0.395675 -6.42973,0.731999 -12.85285,2.044322 -18.74841,4.701941 -5.56584,2.512538 -10.53815,6.165939 -15.26647,10.036961 -15.3522,12.589065 -28.55457,24.887975 -36.12515,45.667515 -2.72357,7.47826 -6.57481,21.3269 -4.66897,39.72579 7.28042,-10.39966 15.32582,-15.37198 20.4696,-17.82517"
         style="fill:#ddaf52;fill-opacity:1;fill-rule:nonzero;stroke:none;stroke-width:0.0659459"
         id="path1824" />
      <path
         d="m 181.40326,484.66758 c 7.66951,4.73492 16.58539,6.9507 25.33641,9.10713 2.42681,0.59351 4.84702,1.18702 7.27383,1.78054 3.22475,0.33632 6.48248,0.61989 9.82593,0.87048 11.35588,0.87049 22.81068,1.06832 34.19294,1.23978 22.95575,0.35611 45.94448,-0.39567 68.75515,-3.09945 10.62388,-1.26616 21.45219,-2.60486 31.78591,-5.45373 8.29599,-2.28172 15.85998,-5.50648 23.23932,-9.95123 0.42865,-0.25059 6.13297,-1.96518 14.07945,-20.48278 1.8267,-7.51783 3.00713,-15.16756 2.74334,-22.95576 -0.32313,-9.81275 -3.33026,-19.26279 -7.19469,-28.21824 -3.09286,-7.16172 -6.66713,-14.19155 -11.0921,-20.62787 -1.98497,-2.89502 -4.08205,-5.62518 -6.9441,-8.01902 -0.98259,-0.81773 -2.28832,-1.77394 -4.68875,-2.17621 -2.51913,-0.29016 -5.1108,-0.1253 -6.39015,-0.0198 -0.71881,0.0527 -2.01795,0.19124 -2.40703,0.244 -0.19124,0.0264 -0.63308,0.0923 -1.10129,0.17145 0.0791,0.27698 0.12529,0.56054 0.12529,0.8639 0,1.72118 -1.51016,3.33026 -3.27091,3.27091 -2.30811,-0.0857 -4.62281,-0.0791 -6.93091,0.0132 -9.17307,0.34292 -18.25382,1.83329 -27.40051,2.53892 -4.64917,0.3627 -9.32473,0.52097 -13.98051,0.2374 -4.64919,-0.28357 -9.2588,-0.74519 -13.92118,-0.82432 -18.98581,-0.29676 -37.79357,2.73675 -56.62112,4.66897 -9.27199,0.94962 -18.77479,1.92561 -28.10613,1.51675 -4.89318,-0.21762 -9.68745,-1.03535 -14.45534,-2.12346 -1.80691,-0.41546 -3.57426,-0.98918 -5.36799,-1.47059 -1.85308,-0.50119 -2.97416,-0.80454 -4.86021,-0.63308 -0.25059,0.0198 -0.50119,0.0462 -0.74519,0.066 -0.0396,0.007 -0.13189,0.0198 -0.22421,0.033 -0.0989,0.0264 -0.31654,0.0725 -0.44184,0.0923 -0.44184,0.53416 -1.10789,0.96281 -1.60249,1.43103 -0.81113,0.76497 -1.55632,1.60248 -2.30151,2.42681 -3.00053,3.2907 -5.88896,6.70669 -8.75761,10.11609 -5.40756,6.43632 -10.6041,13.17599 -14.17177,20.8389 -1.68162,3.60724 -2.88183,7.47167 -3.2907,11.43501 -0.16486,1.59589 -0.2374,3.19178 -0.25059,4.78767 0.29016,1.06173 0.58032,2.12346 0.88367,3.18519 4.96573,17.48225 12.81329,35.56461 28.27759,45.12016"
         style="fill:#5e605c;fill-opacity:1;fill-rule:nonzero;stroke:none;stroke-width:0.0659459"
         id="path1826" />
      <path
         d="m 162.04815,332.15457 c -1.12108,12.14063 -1.97838,24.66375 1.74097,36.27682 3.47535,10.8415 10.71621,20.08711 18.6429,28.25781 4.41837,4.55686 9.1401,8.89609 14.55425,12.20658 5.90216,3.62043 12.49675,5.94172 19.14409,7.89372 46.70946,13.69036 98.48356,9.27199 142.19247,-12.14064 6.92432,-3.38961 13.82226,-7.33977 18.6429,-13.35404 9.27859,-11.58669 8.85653,-27.93467 7.70248,-42.73292 -2.91481,-37.46385 -7.57059,-74.79581 -13.96074,-111.82441 -0.38249,-2.24876 -0.81773,-4.58984 -2.1894,-6.41654 -1.41125,-1.89264 -3.64022,-2.97416 -5.82303,-3.87761 -11.61966,-4.80086 -24.28126,-6.42973 -36.79779,-7.62335 -34.39076,-3.2907 -69.24975,-3.65999 -103.49544,1.37827 -11.72517,1.72119 -32.20137,2.36086 -42.17898,9.41707 -9.47642,6.7001 -8.95545,30.92202 -10.60409,41.48655 -3.15881,20.26517 -5.68454,40.62925 -7.57059,61.05269"
         style="fill:#ddaf52;fill-opacity:1;fill-rule:nonzero;stroke:none;stroke-width:0.0659459"
         id="path1828" />
      <path
         d="m 322.69887,417.91058 c -4.43815,-7.69589 -12.25273,-21.06971 -22.09185,-36.89012 -1.45081,-2.33449 -4.10843,-6.49567 -9.19285,-9.19945 -1.98497,-1.05514 -4.0227,-2.27513 -8.50702,-2.45319 -14.05307,-0.57373 -21.11587,-0.84411 -23.07446,0 -5.93513,2.55211 -8.95545,7.40572 -11.65264,11.65264 -6.23848,9.84572 -14.11241,21.77532 -25.05943,37.66828 1.63546,0.38908 3.96335,0.91665 6.76605,1.48378 21.5643,4.37221 38.55855,4.45135 42.99011,4.43156 19.34852,-0.0923 36.33618,-3.11924 49.82209,-6.6935"
         style="fill:#f4cd60;fill-opacity:1;fill-rule:nonzero;stroke:none;stroke-width:0.0659459"
         id="path1830" />
      <path
         d="m 265.14793,242.21759 c 0.26378,0.33632 0.47481,0.69243 0.63308,1.06832 v -0.0132 c -0.0989,-0.38908 -0.30995,-0.73859 -0.63308,-1.05513"
         style="fill:#494f47;fill-opacity:1;fill-rule:nonzero;stroke:none;stroke-width:0.0659459"
         id="path1832" />
      <path
         d="m 354.90024,99.431588 c -5.2361,-4.622805 -10.34031,-9.239016 -18.16808,-12.041716 -6.13297,-2.189403 -12.74075,-2.565294 -19.243,-2.908213 -17.06679,-0.896863 -34.13358,-1.688214 -51.20697,-2.374051 -10.97998,-0.441837 -22.01273,-0.837513 -32.93336,0.395675 -6.42973,0.731999 -12.85285,2.044322 -18.74841,4.701941 -5.75708,2.598267 -10.00399,5.968101 -15.26647,10.036961 -4.97892,3.857835 -8.84335,7.385935 -11.47459,9.918255 2.88184,-1.54313 8.57297,-4.04907 15.66215,-3.42918 8.94885,0.77816 15.15436,5.88237 19.69803,10.38647 5.36799,5.32184 9.23242,11.79772 13.48593,17.98344 5.25589,7.64972 10.49858,15.33901 14.91696,23.50971 1.9454,3.60064 3.81826,7.3068 5.3548,11.10528 0.34952,0.8507 0.66606,1.71459 0.976,2.57848 2.84227,0.65287 5.79005,0.77157 8.70486,0.88368 8.95545,0.34292 17.9043,0.68584 26.85975,1.02875 0.27697,-0.64627 0.57373,-1.28594 0.88367,-1.90583 1.78054,-3.64021 4.08205,-7.01005 6.49567,-10.24799 2.14324,-2.88843 4.40519,-5.68453 6.67372,-8.47404 0.87708,-1.08152 1.74757,-2.16303 2.61146,-3.25114 0.13189,-0.17145 0.25719,-0.34951 0.38908,-0.52097 0.26378,-0.36929 0.53416,-0.73859 0.79795,-1.10129 0.62648,-0.8573 1.25297,-1.7146 1.87945,-2.5653 5.20312,-7.05621 10.61068,-14.08604 17.00743,-20.12008 6.48907,-6.11319 12.66161,-11.54053 21.45879,-12.0681 9.45004,-0.57373 16.77003,4.95913 19.58592,7.35297 -5.83621,-8.79059 -11.92301,-14.92355 -16.40074,-18.873712"
         style="fill:#f4cd60;fill-opacity:1;fill-rule:nonzero;stroke:none;stroke-width:0.0659459"
         id="path1834" />
      <path
         d="m 186.81742,229.97144 c 3.29729,-0.56054 6.63415,-0.89027 9.96442,-1.23319 0.63968,-0.0659 1.27276,-0.13189 1.90584,-0.20443 0.40886,-0.0462 0.81773,-0.0923 1.22659,-0.14508 0.0594,-0.007 0.55395,-0.0791 0.60011,-0.0857 2.03113,-0.29676 4.05567,-0.6067 6.0868,-0.92324 8.46086,-1.31892 16.92171,-2.71038 25.42873,-3.69957 8.14431,-0.94302 16.3216,-1.3387 24.51208,-1.29913 16.38095,0.0857 32.68277,1.74097 49.00438,2.88843 7.23426,0.50778 14.46851,0.82432 21.70936,1.07492 5.92854,0.19783 11.83729,0.57373 17.70647,1.39805 9.35772,1.31232 18.98582,4.10843 25.99586,10.4722 -0.0791,-0.49459 -0.16486,-0.98259 -0.25059,-1.47718 -0.38249,-2.24876 -0.81773,-4.58984 -2.1894,-6.41654 -1.41125,-1.89264 -3.64022,-2.97416 -5.82303,-3.87761 -11.61966,-4.80086 -24.28126,-6.42973 -36.79779,-7.62335 -34.39076,-3.2907 -69.24975,-3.65999 -103.49544,1.37827 -11.72517,1.72119 -32.20137,2.36086 -42.17898,9.41707 -1.20021,0.8507 -2.24216,1.98497 -3.15221,3.33027 3.00713,-1.51016 6.36378,-2.40703 9.7468,-2.97416"
         style="fill:#5e605c;fill-opacity:1;fill-rule:nonzero;stroke:none;stroke-width:0.0659459"
         id="path1836" />
      <path
         d="m 286.92985,224.31988 c 0.36929,-0.70562 1.00897,-1.18043 1.73437,-1.42443 0.56054,-18.26041 1.12108,-36.51423 1.67503,-54.77464 -9.95123,-0.1187 -19.90247,-0.244 -29.86029,-0.3627 0.49459,18.73522 0.98919,37.47703 1.47719,56.21226 0.3627,-0.0725 0.73199,-0.0923 1.08151,-0.0528 1.55632,0.18465 2.87524,1.60248 2.83567,3.21156 -0.0132,0.42206 -0.0462,0.83752 -0.0857,1.25297 0,0.1253 -0.007,0.2506 -0.007,0.34292 0.033,0.0857 0.1187,0.61989 0.12529,0.62649 0.19125,0.79794 0.46162,1.56951 0.70562,2.34767 0.52098,1.68162 0.88368,3.46875 0.71222,5.2361 -0.13849,1.43103 -0.51438,2.77633 -0.90346,4.15459 -0.19124,0.69244 -0.34292,1.39146 -0.52757,2.08389 l -0.0396,0.1319 v 0.033 0.13848 c 0.41546,1.13427 0.27697,2.38065 -0.70562,3.36984 -0.76498,0.76497 -2.0773,1.12108 -3.19178,0.86389 V 372.84316 H 288.6638 V 244.01132 c -0.42865,-0.0462 -0.85729,-0.17146 -1.25956,-0.3693 -3.85124,-1.88605 -4.15459,-6.47589 -3.59405,-10.19523 0.47481,-3.15222 1.62886,-6.31762 3.11924,-9.12691"
         style="fill:#494f47;fill-opacity:1;fill-rule:nonzero;stroke:none;stroke-width:0.0659459"
         id="path1838" />
      <path
         d="m 294.23005,215.16 c -0.0659,-0.82433 -0.15167,-1.64865 -0.26378,-2.47297 -12.45058,-1.76076 -24.99348,-1.76076 -37.54958,0 -3.13243,19.46722 6.83859,8.88291 9.39729,20.3443 0.88367,9.30496 -7.7948,5.67134 -7.58378,11.19761 -1.20681,22.96894 -2.90161,29.01618 2.84887,30.38126 -0.15168,0.0593 -0.30336,0.1187 -0.45503,0.18465 -1.37168,0.58032 -2.57189,1.81351 -2.65762,3.29729 -0.0462,0.81114 0.23741,1.60249 0.56054,2.34108 1.91902,4.33264 5.59221,7.72886 9.77977,9.93145 1.74757,0.92324 3.64021,1.66183 5.612,1.74097 1.64205,0.0659 3.27091,-0.32973 4.80745,-0.89686 5.00529,-1.84649 9.29177,-5.57243 11.80431,-10.28097 0.79135,-1.47059 1.41124,-3.23134 0.79795,-4.78107 -0.27698,-0.69903 -0.75179,-1.23978 -1.3453,-1.66184 1.62886,-0.33632 2.86205,-1.2134 2.96756,-3.5347 0.40887,-9.77317 0.1319,-18.67587 -1.17383,-28.5018 -3.30389,-4.08865 -8.49383,-1.97838 -7.07599,-10.02377 4.80086,-12.13404 11.27015,-0.62649 9.52917,-17.26463"
         style="fill:#363a35;fill-opacity:1;fill-rule:nonzero;stroke:none;stroke-width:0.0659459"
         id="path1840" />
      <path
         d="m 388.12377,166.44578 c -8.82355,-5.40756 -21.35327,-9.60831 -31.19899,-11.60647 -10.78215,-2.1894 -21.99954,-1.61567 -32.80148,0.13189 -5.14377,0.83092 -10.06992,2.48616 -15.06202,3.91719 -13.10344,3.75891 -20.99057,2.24875 -34.01488,1.92562 -5.77686,-0.14509 -11.43501,-0.34952 -17.16571,-1.18044 -11.03934,-1.60248 -21.70279,-4.84702 -32.49153,-7.55739 -12.7935,-3.21816 -28.79856,-2.54551 -42.92417,3.07307 -3.7721,1.50357 -8.26961,3.89741 -12.19998,6.8254 -0.92984,0.69243 -2.25535,1.79373 -3.5347,2.99394 -3.62703,3.40281 -6.35718,6.98367 -8.61913,11.68561 0.0791,1.93881 0.21762,3.93038 0.42865,5.98129 7.28042,-10.39966 15.32582,-15.37198 20.4696,-17.82517 8.32896,-3.97653 17.07998,-3.91059 32.55748,-3.84464 2.32788,0.0132 4.81404,0.0198 7.47166,0.0198 25.79143,-0.0396 29.89986,5.89557 38.05736,8.09816 3.10606,0.83751 6.35059,0.9694 9.56216,1.0947 9.55555,0.3627 19.1177,0.732 28.67326,1.10129 2.01794,0.0791 4.06227,0.15168 6.04064,-0.25059 2.8027,-0.56713 5.31524,-2.05751 7.86734,-3.35005 5.38778,-2.73675 25.01326,-9.70723 45.17291,-6.75945 20.76636,3.03351 34.8458,14.93014 40.80071,20.67403 -0.39567,-3.94356 -0.94302,-7.6761 -1.58929,-11.19761 -1.65524,-1.49038 -3.35665,-2.63783 -5.49989,-3.95016"
         style="fill:#5e605c;fill-opacity:1;fill-rule:nonzero;stroke:none;stroke-width:0.0659459"
         id="path1842" />
      <path
         d="m 362.69504,226.44334 c -0.0396,-0.0132 -0.0857,-0.033 -0.12529,-0.0462 0.0396,0.0132 0.0791,0.033 0.12529,0.0462 m -0.18464,-0.0725 c -0.0198,-0.0132 -0.0396,-0.0198 -0.0594,-0.0264 0.0198,0.007 0.0396,0.0198 0.0594,0.0264 m -0.1319,-0.0528 c -0.0132,-0.007 -0.033,-0.0132 -0.0462,-0.0198 0.0132,0.007 0.033,0.0132 0.0462,0.0198 m -0.13189,-0.0528 c -0.007,-0.007 -0.0198,-0.0132 -0.0264,-0.0132 0.007,0 0.0198,0.007 0.0264,0.0132"
         style="fill:#a17c3f;fill-opacity:1;fill-rule:nonzero;stroke:none;stroke-width:0.0659459"
         id="path1926" />
      <path
         d="m 354.44522,406.49535 c 0.0462,-0.0264 0.0923,-0.0462 0.13848,-0.0659 -0.0462,0.0198 -0.0923,0.0396 -0.13848,0.0659 m 0.38248,-0.17806 c 1.08151,-0.50118 2.14984,-1.01556 3.22476,-1.53654 -1.07492,0.52098 -2.14325,1.03536 -3.22476,1.53654"
         style="fill:#515049;fill-opacity:1;fill-rule:nonzero;stroke:none;stroke-width:0.0659459"
         id="path1928" />
      <path
         d="m 271.22154,424.61068 c -12.97815,0 -25.95629,-1.25957 -38.68385,-3.79848 0.14508,-0.0132 0.29676,-0.0198 0.45503,-0.033 19.01219,3.57427 34.00169,3.82486 39.11909,3.82486 0.21103,0 0.40227,0 0.58032,0 -0.488,0.007 -0.976,0.007 -1.47059,0.007 m 42.70655,-4.58324 c 3.05988,-0.66605 5.99446,-1.37827 8.77078,-2.11686 -1.97178,-3.42259 -4.61621,-7.96626 -7.80797,-13.35404 8.16408,-3.38962 17.58775,-8.20367 27.42028,-16.05782 8.96863,-7.17491 15.28625,-14.48831 19.42105,-19.91565 -8.78399,3.63361 -17.56798,7.26723 -26.35197,10.90085 5.67794,-6.71329 13.49253,-17.58117 18.72204,-32.59705 3.67318,-10.54474 4.55026,-18.77478 5.49329,-28.1391 2.87524,-28.67986 -2.03773,-51.82026 -4.73491,-68.24079 -1.21341,-7.35955 -2.72357,-14.7323 -4.86022,-21.90721 7.6827,1.56951 15.20712,4.39199 20.9576,9.6149 v 0 0 c -0.0791,-0.49459 -0.16486,-0.98259 -0.25059,-1.47718 6.39015,37.0286 11.04593,74.36056 13.96074,111.82441 0.32973,4.22054 0.60011,8.56637 0.60011,12.89242 0,8.47404 -1.02216,16.86895 -4.6294,24.08343 -1.00898,2.01794 -2.22238,3.95016 -3.67319,5.75707 -4.82064,6.01427 -11.71858,9.96443 -18.6429,13.35404 v 0 c -0.0923,0.0462 -0.17805,0.0857 -0.27037,0.13189 -1.07492,0.52098 -2.14325,1.03536 -3.22476,1.53654 -0.0791,0.033 -0.16486,0.0725 -0.244,0.11211 -0.0462,0.0198 -0.0923,0.0396 -0.13848,0.0659 -12.95837,5.98788 -26.57619,10.50517 -40.51713,13.53209"
         style="fill:#be9141;fill-opacity:1;fill-rule:nonzero;stroke:none;stroke-width:0.0659459"
         id="path1930" />
      <path
         d="m 272.11181,424.60408 c -5.1174,0 -20.1069,-0.25059 -39.11909,-3.82486 3.15221,-0.23081 7.58377,-0.59351 12.87263,-1.14746 21.53792,-2.26853 38.72342,-4.08204 58.30934,-11.02614 3.22476,-1.14087 6.8254,-2.43341 10.71621,-4.04908 3.19176,5.38778 5.83619,9.93145 7.80797,13.35404 -2.77632,0.73859 -5.7109,1.45081 -8.77078,2.11686 -13.53869,2.94119 -27.38073,4.47772 -41.23596,4.57664 -0.17805,0 -0.36929,0 -0.58032,0"
         style="fill:#d2aa4c;fill-opacity:1;fill-rule:nonzero;stroke:none;stroke-width:0.0659459"
         id="path1932" />
      <path
         d="m 370.95806,238.21467 c -5.75048,-5.22291 -13.2749,-8.04539 -20.9576,-9.6149 -0.67264,-2.24876 -1.40464,-4.48432 -2.20918,-6.68692 4.91956,1.06173 9.75999,2.4466 14.42895,4.33924 0.007,0 0.0198,0.007 0.0264,0.0132 0.0264,0.007 0.0594,0.0198 0.0857,0.033 0.0132,0.007 0.033,0.0132 0.0462,0.0198 0.0264,0.007 0.0462,0.0132 0.0725,0.0264 0.0198,0.007 0.0396,0.0132 0.0594,0.0264 0.0198,0.007 0.0396,0.0132 0.0593,0.0264 0.0396,0.0132 0.0857,0.033 0.12529,0.0462 v 0 c 2.18281,0.90345 4.41178,1.98497 5.82303,3.87761 1.37167,1.8267 1.80691,4.16778 2.1894,6.41654 v 0 c 0.0857,0.49459 0.17146,0.98259 0.25059,1.47718"
         style="fill:#515049;fill-opacity:1;fill-rule:nonzero;stroke:none;stroke-width:0.0659459"
         id="path1934" />
      <path
         d="m 391.56615,178.28307 c -4.2733,-3.66 -10.49199,-8.21686 -18.47144,-11.83729 v -0.007 c 7.97945,3.62702 14.19814,8.18388 18.47144,11.84388 v 0"
         style="fill:#8a6732;fill-opacity:1;fill-rule:nonzero;stroke:none;stroke-width:0.0659459"
         id="path1936" />
      <path
         d="m 391.15728,168.42416 c -0.92983,-0.65946 -1.91902,-1.29914 -3.03351,-1.97838 -4.68875,-2.87524 -10.43263,-5.40756 -16.25565,-7.45188 -1.07492,-5.36799 -2.53892,-10.65685 -4.25351,-15.81382 -3.56108,-10.70302 -8.09816,-17.99663 -11.52734,-23.68776 -1.91903,-3.19178 -3.60065,-5.98788 -5.17016,-8.48064 0.26379,-0.0264 0.52757,-0.0462 0.79795,-0.0593 0.45502,-0.033 0.91005,-0.0462 1.35848,-0.0462 8.79059,0 15.54344,5.1174 18.22744,7.39913 9.00161,12.56928 13.57166,23.32505 14.44215,25.41554 1.62227,3.90399 3.38302,8.68507 4.97891,14.27728 0.14508,3.47534 0.29016,6.95069 0.43524,10.42604 M 354.90024,99.431588 c -5.21632,-4.603021 -10.30074,-9.199449 -18.07576,-12.008743 6.73307,2.426808 12.02193,6.31102 18.07576,12.008743 M 336.82448,87.422845 c -0.033,-0.0066 -0.0659,-0.01978 -0.0923,-0.03297 0.0264,0.01319 0.0593,0.02638 0.0923,0.03297"
         style="fill:#be9141;fill-opacity:1;fill-rule:nonzero;stroke:none;stroke-width:0.0659459"
         id="path1938" />
      <path
         d="m 371.30098,118.3053 c -2.684,-2.28173 -9.43685,-7.39913 -18.22744,-7.39913 -0.44843,0 -0.90346,0.0132 -1.35848,0.0462 -0.27038,0.0132 -0.53416,0.033 -0.79795,0.0593 -4.39199,-6.95069 -7.92669,-11.540524 -13.45955,-15.853384 -4.36562,-3.396212 -12.99134,-8.988422 -26.67509,-11.019555 2.23556,0.112108 4.47113,0.224216 6.70669,0.342918 6.50225,0.342919 13.11003,0.71881 19.243,2.908213 v 0 c 0.0264,0.01319 0.0593,0.02638 0.0923,0.03297 v 0 c 7.77502,2.809294 12.85944,7.405722 18.07576,12.008743 v 0 c 6.57481,6.192325 12.01534,12.747345 16.40074,18.873715"
         style="fill:#d2aa4c;fill-opacity:1;fill-rule:nonzero;stroke:none;stroke-width:0.0659459"
         id="path1940" />
      <path
         d="m 391.56615,178.28307 c -4.2733,-3.66 -10.49199,-8.21686 -18.47144,-11.84388 -0.31654,-2.49276 -0.732,-4.97892 -1.22659,-7.44529 5.82302,2.04432 11.5669,4.57664 16.25565,7.45188 1.11449,0.67924 2.10368,1.31892 3.03351,1.97838 0.13189,3.2841 0.27038,6.5748 0.40887,9.85891"
         style="fill:#515049;fill-opacity:1;fill-rule:nonzero;stroke:none;stroke-width:0.0659459"
         id="path1942" />
    </g>
  </g>
</svg>
